HIERARCHY
ROOT Hips
{
	OFFSET 0.00 0.00 0.00
	CHANNELS 6 Xposition Yposition Zposition Xrotation Yrotation Zrotation
	JOINT Spine
	{
		OFFSET 0.00000 7.06766 0.00000
		CHANNELS 3 Xrotation Yrotation Zrotation
		JOINT Head
		{
			OFFSET 0.00000 15.03989 0.00000
			CHANNELS 3 Xrotation Yrotation Zrotation
			End Site
			{
				OFFSET 0.00000 4.52755 0.00000
			}
		}
		JOINT LeftShoulder
		{
			OFFSET 0.00000 10.53037 0.00000
			CHANNELS 3 Xrotation Yrotation Zrotation
			JOINT LeftArm
			{
				OFFSET 7.02886 0.00000 0.00000
				CHANNELS 3 Xrotation Yrotation Zrotation
				JOINT LeftForeArm
				{
					OFFSET 10.79770 0.00000 0.00000
					CHANNELS 3 Yrotation Zrotation Xrotation
					JOINT LeftHand
					{
						OFFSET 7.90744 0.00000 0.00000
						CHANNELS 3 Xrotation Yrotation Zrotation
						JOINT LeftHandThumb1
						{
							OFFSET 0.00000 0.00000 0.00000
							CHANNELS 3 Xrotation Zrotation Yrotation
							End Site
							{
								OFFSET 0.00000 0.00000 3.93700
							}
						}
						End Site
						{
							OFFSET 3.93700 0.00000 0.00000
						}
					}
				}
			}
		}
		JOINT RightShoulder
		{
			OFFSET 0.00000 10.53037 0.00000
			CHANNELS 3 Xrotation Yrotation Zrotation
			JOINT RightArm
			{
				OFFSET -7.02886 0.00000 0.00000
				CHANNELS 3 Xrotation Yrotation Zrotation
				JOINT RightForeArm
				{
					OFFSET -10.79770 0.00000 0.00000
					CHANNELS 3 Yrotation Zrotation Xrotation
					JOINT RightHand
					{
						OFFSET -7.90744 0.00000 0.00000
						CHANNELS 3 Xrotation Yrotation Zrotation
						JOINT RightHandThumb1
						{
							OFFSET 0.00000 0.00000 0.00000
							CHANNELS 3 Xrotation Zrotation Yrotation
							End Site
							{
								OFFSET 0.00000 0.00000 3.93700
							}
						}
						End Site
						{
							OFFSET -3.93700 0.00000 0.00000
						}
					}
				}
			}
		}
	}
	JOINT LeftUpLeg
	{
		OFFSET 4.01300 0.00000 0.00000
		CHANNELS 3 Xrotation Yrotation Zrotation
		JOINT LeftLeg
		{
			OFFSET 0.00000 -16.89976 0.00000
			CHANNELS 3 Xrotation Yrotation Zrotation
			JOINT LeftFoot
			{
				OFFSET 0.00000 -17.38918 0.00000
				CHANNELS 3 Xrotation Yrotation Zrotation
				JOINT LeftToeBase
				{
					OFFSET 0.00000 -1.27456 4.75673
					CHANNELS 3 Xrotation Yrotation Zrotation
					End Site
					{
						OFFSET 0.00000 0.00000 2.95275
					}
				}
			}
		}
	}
	JOINT RightUpLeg
	{
		OFFSET -4.01300 0.00000 0.00000
		CHANNELS 3 Xrotation Yrotation Zrotation
		JOINT RightLeg
		{
			OFFSET 0.00000 -16.89976 0.00000
			CHANNELS 3 Xrotation Yrotation Zrotation
			JOINT RightFoot
			{
				OFFSET 0.00000 -17.38918 0.00000
				CHANNELS 3 Xrotation Yrotation Zrotation
				JOINT RightToeBase
				{
					OFFSET 0.00000 -1.27456 4.75673
					CHANNELS 3 Xrotation Yrotation Zrotation
					End Site
					{
						OFFSET 0.00000 0.00000 2.95275
					}
				}
			}
		}
	}
}
MOTION
Frames: 11
Frame Time: 0.008333
 18.7655 35.6385 -24.1861 174.1009 -0.8248 179.6740 -19.2602 1.3093 -0.6285 -132.9744 2.0400 179.2843 -29.9466 -1.2156 15.8657 -0.9362 -3.7206 -2.7572 3.7796 0.0000 6.1283 1.1243 10.6189 -6.0792 33.1476 -0.0000 26.2537 5.4588 -10.8409 -12.1712 -42.7665 -4.2731 2.3594 5.4770 -0.0000 34.8898 0.9544 -3.9870 13.4743 32.8623 0.0000 -24.3270 3.9166 6.6199 -0.0930 -5.7090 -0.0000 0.0000 -16.1383 29.1644 1.0386 21.7547 0.0000 -0.0000 3.6229 -7.4143 0.3659 -3.7108 -0.0000 0.0000 -17.1110 -30.0536 2.2684 22.1316 -0.0000 -0.0000
 18.7640 35.6382 -24.1877 174.1169 -0.8250 179.6696 -19.2454 1.3014 -0.6062 -132.9305 1.9643 179.3443 -29.9371 -1.1769 15.8622 -0.9261 -3.7591 -2.7396 3.7900 0.0000 6.1423 1.1239 10.6066 -6.0839 33.1476 -0.0000 26.2537 5.4441 -10.8483 -12.1722 -42.7333 -4.2481 2.3474 5.4783 -0.0000 34.8817 0.9549 -3.9807 13.5014 32.8623 0.0000 -24.3270 3.9353 6.6527 -0.0959 -5.7122 0.0000 0.0000 -16.1411 29.1431 1.0485 21.7609 0.0000 -0.0000 3.6346 -7.4021 0.3674 -3.6984 -0.0000 -0.0000 -17.1224 -30.0639 2.2619 22.0974 0.0000 -0.0000
 18.7614 35.6376 -24.1894 174.1266 -0.8229 179.6671 -19.2404 1.3105 -0.5795 -132.9065 1.7526 179.4040 -29.9454 -1.1705 15.8447 -0.8690 -3.7720 -2.7177 3.7842 0.0000 6.1219 1.1191 10.5982 -6.0625 33.1476 -0.0000 26.2537 5.4122 -10.8551 -12.2066 -42.7443 -4.2638 2.3497 5.4960 -0.0000 34.9239 0.9580 -3.9951 13.4964 32.8623 0.0000 -24.3270 3.9434 6.6498 -0.0969 -5.7015 0.0000 -0.0000 -16.1659 29.1418 1.0735 21.7407 -0.0000 0.0000 3.6408 -7.3948 0.3663 -3.6859 0.0000 -0.0000 -17.1282 -30.0718 2.2543 22.1398 -0.0000 -0.0000
 18.7594 35.6379 -24.1893 174.1364 -0.8267 179.6733 -19.2310 1.3074 -0.5773 -132.8559 1.9912 179.3921 -29.9490 -1.1550 15.8339 -0.8406 -3.7961 -2.6833 3.7788 0.0000 6.1406 1.1191 10.6106 -6.0556 33.1476 -0.0000 26.2537 5.4194 -10.8688 -12.1914 -42.7652 -4.2385 2.3326 5.5081 -0.0000 34.9241 0.9619 -4.0030 13.5232 32.8623 0.0000 -24.3270 3.9440 6.6088 -0.1007 -5.6826 0.0000 -0.0000 -16.1691 29.1733 1.0581 21.7593 -0.0000 -0.0000 3.6421 -7.3843 0.3563 -3.6722 -0.0000 -0.0000 -17.1406 -30.0957 2.2531 22.1069 0.0000 -0.0000
 18.7569 35.6374 -24.1917 174.1520 -0.8238 179.6700 -19.2192 1.3049 -0.5513 -132.8293 1.7858 179.4542 -29.9464 -1.1333 15.8297 -0.8335 -3.8148 -2.6630 3.7836 0.0000 6.1435 1.1168 10.6242 -6.0361 33.1476 -0.0000 26.2537 5.4177 -10.8888 -12.2045 -42.8426 -4.2200 2.3336 5.5221 -0.0000 35.0068 0.9665 -4.0249 13.5142 32.8623 0.0000 -24.3270 3.9661 6.6509 -0.1056 -5.6881 -0.0000 -0.0000 -16.1740 29.1362 1.0742 21.7514 -0.0000 0.0000 3.6622 -7.3882 0.3562 -3.6736 0.0000 -0.0000 -17.1522 -30.0742 2.2286 22.1689 -0.0000 0.0000
 18.7550 35.6376 -24.1922 174.1589 -0.8251 179.6766 -19.2128 1.2985 -0.5510 -132.7772 1.9688 179.4617 -29.9323 -1.1062 15.8356 -0.8054 -3.8453 -2.6456 3.7887 0.0000 6.1012 1.1022 10.6151 -5.9626 33.1476 -0.0000 26.2537 5.3984 -10.8910 -12.1952 -42.8136 -4.1870 2.3179 5.5139 -0.0000 35.0028 0.9657 -4.0242 13.5068 32.8623 0.0000 -24.3270 3.9669 6.6132 -0.1098 -5.6704 -0.0000 0.0000 -16.1809 29.1610 1.0730 21.7731 0.0000 -0.0000 3.6601 -7.3944 0.3481 -3.6593 0.0000 -0.0000 -17.1472 -30.0788 2.2344 22.0617 0.0000 0.0000
 18.7534 35.6378 -24.1923 174.1673 -0.8218 179.6737 -19.2027 1.2919 -0.5372 -132.7333 2.0448 179.4707 -29.9565 -1.1026 15.8450 -0.7468 -3.8539 -2.6335 3.7765 0.0000 6.0751 1.1161 10.6534 -6.0159 33.1476 -0.0000 26.2537 5.3750 -10.8944 -12.1863 -42.7664 -4.1471 2.3039 5.5133 -0.0000 35.0032 0.9706 -4.0443 13.5078 32.8623 0.0000 -24.3270 3.9723 6.6242 -0.1093 -5.6656 -0.0000 -0.0000 -16.1855 29.1575 1.0747 21.7694 -0.0000 -0.0000 3.6613 -7.3742 0.3488 -3.6464 0.0000 0.0000 -17.1614 -30.1068 2.2238 22.1176 0.0000 -0.0000
 18.7524 35.6377 -24.1933 174.1797 -0.8152 179.6693 -19.1841 1.2971 -0.5190 -132.6966 2.0003 179.5114 -29.9194 -1.0747 15.8521 -0.7599 -3.8820 -2.6240 3.7858 0.0000 6.0704 1.0955 10.6541 -5.9052 33.1476 -0.0000 26.2537 5.3315 -10.9113 -12.1845 -42.7437 -4.1077 2.2909 5.5129 -0.0000 35.0481 0.9690 -4.0375 13.5081 32.8623 0.0000 -24.3270 3.9698 6.7100 -0.1115 -5.6362 0.0000 0.0000 -16.1956 29.0891 1.0680 21.7506 0.0000 -0.0000 3.6691 -7.3684 0.3518 -3.6349 -0.0000 -0.0000 -17.1716 -30.1031 2.2039 22.0678 -0.0000 -0.0000
 18.7513 35.6373 -24.1946 174.1936 -0.8182 179.6582 -19.1595 1.2695 -0.4932 -132.6937 1.8299 179.5676 -29.9251 -1.0341 15.8820 -0.7265 -3.9108 -2.6312 3.7929 0.0000 6.0325 1.0955 10.6317 -5.9177 33.1476 -0.0000 26.2537 5.3257 -10.9656 -12.1896 -42.7264 -4.0081 2.3286 5.4796 -0.0000 35.0846 0.9648 -4.0194 13.5099 32.8623 0.0000 -24.3270 3.9862 6.6974 -0.1021 -5.6380 0.0000 -0.0000 -16.2186 29.0999 1.0874 21.7747 0.0000 -0.0000 3.6829 -7.3600 0.3639 -3.6307 0.0000 0.0000 -17.1745 -30.1331 2.2066 22.1248 -0.0000 0.0000
 18.7501 35.6373 -24.1944 174.1981 -0.8209 179.6574 -19.1488 1.2632 -0.4864 -132.6451 1.9865 179.5679 -29.8844 -1.0054 15.9119 -0.7531 -3.9407 -2.6411 3.8087 0.0000 6.0573 1.0875 10.6433 -5.8681 33.1476 -0.0000 26.2537 5.2919 -10.9932 -12.1868 -42.6885 -3.9438 2.3325 5.4627 -0.0000 35.1501 0.9651 -4.0126 13.5355 32.8623 0.0000 -24.3270 3.9905 6.6827 -0.1016 -5.6368 -0.0000 -0.0000 -16.2214 29.0985 1.1105 21.7614 0.0000 -0.0000 3.6849 -7.3673 0.3625 -3.6259 -0.0000 0.0000 -17.1701 -30.1185 2.2040 22.0847 0.0000 -0.0000
 18.7487 35.6371 -24.1945 174.2172 -0.8145 179.6556 -19.1207 1.2582 -0.4711 -132.6074 1.8074 179.6207 -29.8563 -0.9867 15.9254 -0.7967 -3.9473 -2.6300 3.8187 0.0000 6.0851 1.0892 10.6330 -5.8828 33.1476 -0.0000 26.2537 5.2737 -11.0151 -12.1937 -42.6036 -3.8877 2.3449 5.4630 -0.0000 35.1825 0.9612 -3.9849 13.5729 32.8623 0.0000 -24.3270 4.0144 6.6852 -0.1021 -5.6420 0.0000 -0.0000 -16.2227 29.0992 1.1094 21.7429 -0.0000 -0.0000 3.7011 -7.3723 0.3634 -3.6227 -0.0000 0.0000 -17.1736 -30.1157 2.2121 22.0703 0.0000 -0.0000
